<svg xmlns="http://www.w3.org/2000/svg" viewBox="0 0 120 140">
  <g fill="#1a5f9e" stroke="#0d3d6b" stroke-width="1.2" stroke-linejoin="round">
    <path d="M18 98c8-6 14-14 18-24 2-5 3-10 3-16 0-8-4-15-10-20-2-2-1-5 2-5 6 1 11 5 14 10 3-2 7-3 11-3 8 0 15 5 18 12 4-3 9-5 14-5 10 0 18 8 18 18 0 6-3 11-8 14 4 8 6 17 6 26 0 4-1 8-3 11-6 10-16 16-27 16H35c-11 0-21-6-27-16-2-3-3-7-3-11 0-9 2-18 6-26-5-3-8-8-8-14 0-10 8-18 18-18 5 0 10 2 14 5-3-7-10-12-18-12-4 0-8 1-11 3 3-5 8-9 14-10 3 0 4 3 2 5-6 5-10 12-10 20 0 6 1 11 3 16 4 10 10 18 18 24"/>
    <ellipse cx="72" cy="42" rx="4.5" ry="3.5" fill="#ffffff" stroke="none"/>
    <path d="M76 40c6-8 14-12 24-12" fill="none" stroke="#1a5f9e" stroke-width="2.5" stroke-linecap="round"/>
    <path d="M30 108c-4 6-6 12-5 18 2 0 5-1 8-3 3 2 7 3 11 3s8-1 11-3c3 2 6 3 8 3 1-6-1-12-5-18" fill="#2a7ab8" stroke="none"/>
  </g>
</svg>
