<svg xmlns="http://www.w3.org/2000/svg" viewBox="0 0 120 130">
  <g fill="#c9a227" stroke="#8a6b12" stroke-width="1.2" stroke-linejoin="round">
    <path d="M60 8c-14 0-26 8-32 20-4 8-5 17-3 26 1 5 4 10 8 14-6 4-10 10-12 17-2 8 0 16 5 23 6 8 16 13 27 14 1 8 5 15 11 20 3 2 7 4 11 4h4c4 0 8-2 11-4 6-5 10-12 11-20 11-1 21-6 27-14 5-7 7-15 5-23-2-7-6-13-12-17 4-4 7-9 8-14 2-9 1-18-3-26C86 16 74 8 60 8z"/>
    <path d="M28 36c-6 2-11 6-14 11-3 5-4 11-2 17 2 6 6 11 12 14M92 36c6 2 11 6 14 11 3 5 4 11 2 17-2 6-6 11-12 14" fill="none" stroke="#8a6b12" stroke-width="2"/>
    <circle cx="44" cy="52" r="5" fill="#1a1a1a" stroke="none"/>
    <circle cx="76" cy="52" r="5" fill="#1a1a1a" stroke="none"/>
    <circle cx="45" cy="51" r="1.8" fill="#ffffff" stroke="none"/>
    <circle cx="77" cy="51" r="1.8" fill="#ffffff" stroke="none"/>
    <path d="M60 58v10M52 68h16" stroke="#6b5010" stroke-width="2" stroke-linecap="round"/>
    <path d="M48 78c4 6 12 10 20 10s16-4 20-10" fill="none" stroke="#8a6b12" stroke-width="2"/>
    <path d="M38 98c2 8 10 14 22 14s20-6 22-14" fill="#ddb83a" stroke="none"/>
  </g>
</svg>
